<svg xmlns="http://www.w3.org/2000/svg" width="36" height="26.533" viewBox="0 0 36 26.533"><g transform="translate(-31.641 -25.137)"><rect class="a" width="15.174" height="6.919" rx="2" transform="translate(67.641 51.67) rotate(180)" style="fill:#585858;" /><rect class="b" width="36" height="8" rx="2" transform="translate(67.641 33.137) rotate(180)" style="fill:#e6e6e6;" /><rect class="a" width="15.174" height="6.919" rx="2" transform="translate(67.641 42.277) rotate(180)" style="fill:#585858;" /><g transform="translate(51.036 83.67) rotate(180)"><rect class="a" width="18.975" height="16.312" rx="2" transform="translate(0.396 32)" style="fill:#585858;" /></g><g transform="translate(33.796 39.938)"><path class="c" d="M2.766,1.5A1,1,0,0,1,4.5,1.5L6.4,4.8a1,1,0,0,1-.866,1.5H1.73A1,1,0,0,1,.864,4.8Z" transform="translate(1 2.522)" style="fill:#fff;" /><path class="c" d="M3.967,1.6a1,1,0,0,1,1.753,0L8.875,7.344A1,1,0,0,1,8,8.825H1.69A1,1,0,0,1,.813,7.344Z" transform="translate(4.027)" style="fill:#fff;" /></g><circle class="c" cx="1.5" cy="1.5" r="1.5" transform="translate(37.153 38.264)" style="fill:#fff;" /></g></svg>