<svg xmlns="http://www.w3.org/2000/svg" width="68.136" height="91.253" viewBox="0 0 68.136 91.253"><g transform="translate(-544.5 -114.5)"><g transform="translate(544.5 114.5)"><path class="a" d="M611.877,132.734v72.26H548V118h49.149Z" transform="translate(-545.871 -115.871)" style="fill:#fff;" /><path d="M610.507,205.753H546.629a2.129,2.129,0,0,1-2.129-2.129V116.629a2.129,2.129,0,0,1,2.129-2.129h49.149a2.132,2.132,0,0,1,1.506.624l14.728,14.734a2.131,2.131,0,0,1,.623,1.506v72.26A2.129,2.129,0,0,1,610.507,205.753Zm-61.748-4.258h59.619v-69.25L594.9,118.758H548.758Z" transform="translate(-544.5 -114.5)"/></g><path d="M642.037,135.907H626.828a1.82,1.82,0,0,1-1.82-1.82V120.828a1.82,1.82,0,1,1,3.639,0v11.439h13.389a1.82,1.82,0,0,1,0,3.64Z" transform="translate(-31.531 -1.766)"/></g></svg>