<svg xmlns="http://www.w3.org/2000/svg" width="36" height="30" viewBox="0 0 36 30"><g transform="translate(0 0)"><rect class="a" width="36" height="5" rx="2" transform="translate(0 0)" style="fill:#585858;" /><path class="a" d="M3.681,1.17a1,1,0,0,1,1.638,0L7.9,4.855a1,1,0,0,1-.819,1.573H1.921A1,1,0,0,1,1.1,4.855Z" transform="translate(14 6)" style="fill:#585858;" /><rect class="a" width="36" height="5" rx="2" transform="translate(36 30) rotate(180)" style="fill:#585858;" /><path class="a" d="M3.659,1.308a1,1,0,0,1,1.682,0L8.01,5.459A1,1,0,0,1,7.168,7H1.832A1,1,0,0,1,.99,5.459Z" transform="translate(23 24) rotate(180)" style="fill:#585858;" /></g></svg>