<svg xmlns="http://www.w3.org/2000/svg" width="71.399" height="97.71" viewBox="0 0 71.399 97.71"><g transform="translate(-783.587 -75)"><path class="a" d="M853.106,94.706h-5.828V88.878A1.878,1.878,0,0,0,845.4,87h-5.8v-1.05a10.949,10.949,0,0,0-21.9,0V87H785.467a1.878,1.878,0,0,0-1.88,1.88v74.244a1.878,1.878,0,0,0,1.88,1.88h5.83v5.828a1.878,1.878,0,0,0,1.88,1.88h59.93a1.878,1.878,0,0,0,1.88-1.88V96.586A1.878,1.878,0,0,0,853.106,94.706Zm-31.643-8.758a7.189,7.189,0,0,1,14.378,0v22.757a4.065,4.065,0,1,1-8.13,0V85.836a1.141,1.141,0,0,1,2.282,0v15.6a1.88,1.88,0,0,0,3.759,0v-15.6a4.9,4.9,0,0,0-9.8,0V87h-2.489Zm-34.116,4.809h36.605v17.948a7.825,7.825,0,1,0,15.65,0V90.757h3.917v70.485H787.346Zm63.88,78.193h-56.17V165H845.4a1.878,1.878,0,0,0,1.88-1.88V98.466h3.949Z" style="fill:#1a1a1a;" /><path class="a" d="M799.134,118.3H820a1.88,1.88,0,0,0,0-3.76h-20.87a1.88,1.88,0,0,0,0,3.76Z" transform="translate(-5.342 -15.457)" style="fill:#1a1a1a;" /><path class="a" d="M799.134,138.853H820a1.88,1.88,0,1,0,0-3.759h-20.87a1.88,1.88,0,0,0,0,3.759Z" transform="translate(-5.342 -23.491)" style="fill:#1a1a1a;" /><path class="a" d="M843.064,155.642h-43.93a1.88,1.88,0,0,0,0,3.759h43.93a1.88,1.88,0,0,0,0-3.759Z" transform="translate(-5.342 -31.523)" style="fill:#1a1a1a;" /><path class="a" d="M843.064,176.193h-43.93a1.88,1.88,0,0,0,0,3.759h43.93a1.88,1.88,0,0,0,0-3.759Z" transform="translate(-5.342 -39.556)" style="fill:#1a1a1a;" /><path class="a" d="M843.064,196.743h-43.93a1.88,1.88,0,0,0,0,3.76h43.93a1.88,1.88,0,0,0,0-3.76Z" transform="translate(-5.342 -47.589)" style="fill:#1a1a1a;" /></g></svg>