<svg xmlns="http://www.w3.org/2000/svg" width="39.789" height="30.782" viewBox="0 0 39.789 30.782"><path class="a" d="M346.516,175.25H311.274A2.374,2.374,0,0,0,309,177.713v25.857a2.373,2.373,0,0,0,2.274,2.463h35.242a2.373,2.373,0,0,0,2.274-2.463V177.713A2.374,2.374,0,0,0,346.516,175.25Zm-23.305,4.309a3.088,3.088,0,1,1-2.842,3.078A2.967,2.967,0,0,1,323.21,179.559Zm17.3,22.163H317.278a2.139,2.139,0,0,1-1.676-3.248l3.412-6a1.631,1.631,0,0,1,2.923.07l2.828,5.515,7.077-11.5a1.623,1.623,0,0,1,2.807-.018l7.486,11.85A2.144,2.144,0,0,1,340.511,201.722Z" transform="translate(-309 -175.25)" style="fill:#585858;" /></svg>